<svg width="86" height="87" viewBox="0 0 86 87" fill="none" xmlns="http://www.w3.org/2000/svg">
<path d="M0.624 74.24C0.624 73.5467 0.741333 72.8693 0.976 72.208C1.22133 71.536 1.57333 70.928 2.032 70.384C2.50133 69.8293 3.072 69.392 3.744 69.072C4.416 68.7413 5.17867 68.576 6.032 68.576C7.04533 68.576 7.91467 68.8107 8.64 69.28C9.36533 69.7387 9.904 70.3307 10.256 71.056L9.12 71.792C8.896 71.312 8.608 70.9333 8.256 70.656C7.91467 70.368 7.54133 70.1653 7.136 70.048C6.74133 69.9307 6.352 69.872 5.968 69.872C5.33867 69.872 4.77867 70 4.288 70.256C3.808 70.512 3.40267 70.8533 3.072 71.28C2.74133 71.7067 2.49067 72.1867 2.32 72.72C2.16 73.2427 2.08 73.7707 2.08 74.304C2.08 74.8907 2.176 75.456 2.368 76C2.57067 76.544 2.848 77.024 3.2 77.44C3.552 77.856 3.968 78.1867 4.448 78.432C4.928 78.6773 5.45067 78.8 6.016 78.8C6.41067 78.8 6.816 78.7307 7.232 78.592C7.648 78.4533 8.03733 78.24 8.4 77.952C8.76267 77.6533 9.05067 77.2693 9.264 76.8L10.464 77.456C10.2293 78.0213 9.86667 78.5013 9.376 78.896C8.88533 79.2907 8.336 79.5893 7.728 79.792C7.13067 79.9947 6.53867 80.096 5.952 80.096C5.17333 80.096 4.45867 79.9307 3.808 79.6C3.15733 79.2587 2.592 78.8107 2.112 78.256C1.64267 77.6907 1.27467 77.0613 1.008 76.368C0.752 75.664 0.624 74.9547 0.624 74.24ZM22.0903 80V71.328L18.3463 78H17.4663L13.7063 71.328V80H12.2663V68.64H13.7863L17.8983 76.016L22.0263 68.64H23.5303V80H22.0903ZM30.8586 80.08C30.0586 80.08 29.3333 79.92 28.6826 79.6C28.032 79.28 27.4666 78.848 26.9866 78.304C26.5173 77.7493 26.1546 77.1307 25.8986 76.448C25.6426 75.7547 25.5146 75.0453 25.5146 74.32C25.5146 73.5627 25.648 72.8427 25.9146 72.16C26.192 71.4667 26.5706 70.8533 27.0506 70.32C27.5413 69.776 28.112 69.3493 28.7626 69.04C29.4133 68.72 30.1226 68.56 30.8906 68.56C31.6906 68.56 32.416 68.7253 33.0666 69.056C33.7173 69.3867 34.2773 69.8293 34.7466 70.384C35.216 70.9387 35.5786 71.5573 35.8346 72.24C36.0906 72.9227 36.2186 73.6213 36.2186 74.336C36.2186 75.0933 36.0853 75.8187 35.8186 76.512C35.552 77.1947 35.1733 77.808 34.6826 78.352C34.2026 78.8853 33.6373 79.3067 32.9866 79.616C32.336 79.9253 31.6266 80.08 30.8586 80.08ZM26.9706 74.32C26.9706 74.896 27.0613 75.456 27.2426 76C27.4346 76.5333 27.7013 77.008 28.0426 77.424C28.384 77.84 28.7946 78.1707 29.2746 78.416C29.7546 78.6613 30.288 78.784 30.8746 78.784C31.4826 78.784 32.0266 78.656 32.5066 78.4C32.9866 78.144 33.392 77.8027 33.7226 77.376C34.064 76.9493 34.32 76.4693 34.4906 75.936C34.672 75.4027 34.7626 74.864 34.7626 74.32C34.7626 73.744 34.6666 73.1893 34.4746 72.656C34.2933 72.1227 34.0266 71.648 33.6746 71.232C33.3333 70.8053 32.9226 70.4747 32.4426 70.24C31.9733 69.9947 31.4506 69.872 30.8746 69.872C30.2666 69.872 29.7226 70 29.2426 70.256C28.7626 70.5013 28.352 70.8373 28.0106 71.264C27.68 71.6907 27.424 72.1707 27.2426 72.704C27.0613 73.2267 26.9706 73.7653 26.9706 74.32ZM46.052 69.92H42.132V80H40.692V69.92H36.772V68.64H46.052V69.92ZM47.6881 80V68.64H52.4241C52.9255 68.64 53.3841 68.7467 53.8001 68.96C54.2161 69.1627 54.5788 69.44 54.8881 69.792C55.1975 70.1333 55.4375 70.5227 55.6081 70.96C55.7788 71.3867 55.8641 71.824 55.8641 72.272C55.8641 72.8907 55.7255 73.4827 55.4481 74.048C55.1708 74.6027 54.7815 75.056 54.2801 75.408C53.7788 75.7493 53.1921 75.92 52.5201 75.92H49.1281V80H47.6881ZM49.1281 74.64H52.4401C52.8348 74.64 53.1761 74.5333 53.4641 74.32C53.7628 74.1067 53.9921 73.8187 54.1521 73.456C54.3228 73.0933 54.4081 72.6987 54.4081 72.272C54.4081 71.824 54.3121 71.424 54.1201 71.072C53.9281 70.7093 53.6775 70.4267 53.3681 70.224C53.0588 70.0213 52.7175 69.92 52.3441 69.92H49.1281V74.64ZM65.3689 78.72V80H57.6569V68.64H65.2249V69.92H59.0969V73.6H64.4249V74.8H59.0969V78.72H65.3689ZM75.5364 69.92H71.6164V80H70.1764V69.92H66.2564V68.64H75.5364V69.92ZM77.1725 80V68.64H78.6125V72.944H81.3325C82.5698 72.944 83.5032 73.2693 84.1325 73.92C84.7725 74.5707 85.0925 75.4187 85.0925 76.464C85.0925 77.1253 84.9538 77.728 84.6765 78.272C84.3992 78.8053 83.9885 79.2267 83.4445 79.536C82.9005 79.8453 82.2285 80 81.4285 80H77.1725ZM78.6125 78.8H81.2365C81.8018 78.8 82.2605 78.6933 82.6125 78.48C82.9645 78.256 83.2205 77.968 83.3805 77.616C83.5405 77.2533 83.6205 76.8693 83.6205 76.464C83.6205 76.0587 83.5458 75.68 83.3965 75.328C83.2578 74.976 83.0125 74.6933 82.6605 74.48C82.3085 74.256 81.8285 74.144 81.2205 74.144H78.6125V78.8Z" fill="#EEC48B"/>
<line y1="86.5" x2="86" y2="86.5" stroke="#EEC48B" stroke-dasharray="2 2"/>
<g clip-path="url(#clip0_461_31)">
<path d="M35 2V0H28C27.4477 0 27 0.447688 27 1V8H29V3.41L38.29 12.7L39.7 11.29L30.41 2H35Z" fill="#EEC48B"/>
<path d="M58.0003 0H51.0003V2H55.5903L46.3003 11.29L47.7103 12.7L57.0003 3.41V8H59.0003V1C59.0003 0.447688 58.5526 0 58.0003 0Z" fill="#EEC48B"/>
<path d="M57.0003 28.5903L47.7103 19.3003L46.3003 20.7103L55.5903 30.0003H51.0003V32.0003H58.0003C58.5526 32.0003 59.0003 31.5526 59.0003 31.0003V24.0003H57.0003V28.5903Z" fill="#EEC48B"/>
<path d="M38.29 19.2905L29 28.5905V24.0005H27V31.0005C27 31.5528 27.4477 32.0005 28 32.0005H35V30.0005H30.41L39.7 20.7105L38.29 19.2905Z" fill="#EEC48B"/>
</g>
<defs>
<clipPath id="clip0_461_31">
<rect width="32" height="32" fill="white" transform="translate(27)"/>
</clipPath>
</defs>
</svg>
